<svg width="32" height="32" viewBox="0 0 32 32" fill="none" xmlns="http://www.w3.org/2000/svg">
<path d="M6.32619 0V31.6235H4.76724V9.18588L4.24759 11.3694L3.23088 15.7365L3.18569 15.887L3.11791 15.7365L2.1012 11.3694L1.58155 9.11058V31.6235H0V0H1.58155L3.18569 6.77647L4.76724 0H6.32619Z" fill="#0AD9C6"/>
<path d="M3.93142 15.8871L3.88623 15.7365L3.93142 15.8871Z" fill="#0AD9C6"/>
<path d="M3.99893 15.7365L3.95375 15.8871H3.93115L3.99893 15.7365Z" fill="#0AD9C6"/>
<path d="M18.0877 8.85742L13.7671 19.4297L14.7674 23.9699L19.088 13.3977L18.0877 8.85742Z" fill="#0AD9C6"/>
<path d="M12.6237 4.73276C10.7945 4.73276 9.28955 9.67106 9.28955 15.8439C9.28955 21.9397 10.7714 26.9551 12.6237 26.9551C14.4528 26.9551 15.9578 22.0168 15.9578 15.8439C15.9578 9.74822 14.4528 4.73276 12.6237 4.73276ZM12.6237 20.9366C11.767 20.9366 11.0955 18.6217 11.0955 15.8439C11.0955 12.989 11.7902 10.7513 12.6237 10.7513C13.4572 10.7513 14.1518 13.0661 14.1518 15.8439C14.1518 18.6217 13.4572 20.9366 12.6237 20.9366Z" fill="#0AD9C6"/>
<path d="M20.6584 4.73276C18.8292 4.73276 17.3242 9.67106 17.3242 15.8439C17.3242 21.9397 18.8061 26.9551 20.6584 26.9551C22.4875 26.9551 23.9925 22.0168 23.9925 15.8439C23.9693 9.74822 22.4875 4.73276 20.6584 4.73276ZM20.6584 20.9366C19.8017 20.9366 19.1302 18.6217 19.1302 15.8439C19.1302 12.989 19.8248 10.7513 20.6584 10.7513C21.4919 10.7513 22.1865 13.0661 22.1865 15.8439C22.1865 18.6217 21.4919 20.9366 20.6584 20.9366Z" fill="#0AD9C6"/>
<path d="M32 0.376495V32H30.4184V15.5859L29.0854 11.3694L28.0913 8.13179V32H26.5098V0.376495H28.0687H28.0913L29.944 6.32473L30.4184 7.83061V0.376495H32Z" fill="#0AD9C6"/>
<rect x="17.5156" y="4.73276" width="2.84033" height="6.31036" fill="#0AD9C6"/>
</svg>
